<mxfile host="Electron" modified="2024-08-02T08:28:07.707Z" agent="Mozilla/5.0 (Windows NT 10.0; Win64; x64) AppleWebKit/537.36 (KHTML, like Gecko) draw.io/22.0.3 Chrome/114.0.5735.289 Electron/25.8.4 Safari/537.36" etag="KkOg8-pRf1wC_SPZ7XgX" version="22.0.3" type="device">
  <diagram name="Page-1" id="LSbP4V47tpOACBhXlLEB">
    <mxGraphModel dx="1084" dy="926" grid="1" gridSize="10" guides="1" tooltips="1" connect="1" arrows="1" fold="1" page="1" pageScale="1" pageWidth="700" pageHeight="210" math="0" shadow="0">
      <root>
        <mxCell id="0" />
        <mxCell id="1" parent="0" />
        <mxCell id="43nEJZOgeesaap-Se7oP-12" style="rounded=0;orthogonalLoop=1;jettySize=auto;html=1;" edge="1" parent="1" source="43nEJZOgeesaap-Se7oP-1" target="43nEJZOgeesaap-Se7oP-2">
          <mxGeometry relative="1" as="geometry" />
        </mxCell>
        <mxCell id="43nEJZOgeesaap-Se7oP-13" style="rounded=0;orthogonalLoop=1;jettySize=auto;html=1;" edge="1" parent="1" source="43nEJZOgeesaap-Se7oP-1" target="43nEJZOgeesaap-Se7oP-5">
          <mxGeometry relative="1" as="geometry" />
        </mxCell>
        <mxCell id="43nEJZOgeesaap-Se7oP-1" value="8" style="ellipse;whiteSpace=wrap;html=1;aspect=fixed;" vertex="1" parent="1">
          <mxGeometry x="290" width="40" height="40" as="geometry" />
        </mxCell>
        <mxCell id="43nEJZOgeesaap-Se7oP-2" value="1" style="ellipse;whiteSpace=wrap;html=1;aspect=fixed;" vertex="1" parent="1">
          <mxGeometry x="210" y="50" width="40" height="40" as="geometry" />
        </mxCell>
        <mxCell id="43nEJZOgeesaap-Se7oP-4" value="6" style="ellipse;whiteSpace=wrap;html=1;aspect=fixed;" vertex="1" parent="1">
          <mxGeometry x="250" y="100" width="40" height="40" as="geometry" />
        </mxCell>
        <mxCell id="43nEJZOgeesaap-Se7oP-5" value="17" style="ellipse;whiteSpace=wrap;html=1;aspect=fixed;" vertex="1" parent="1">
          <mxGeometry x="370" y="50" width="40" height="40" as="geometry" />
        </mxCell>
        <mxCell id="43nEJZOgeesaap-Se7oP-6" value="13" style="ellipse;whiteSpace=wrap;html=1;aspect=fixed;" vertex="1" parent="1">
          <mxGeometry x="310" y="100" width="40" height="40" as="geometry" />
        </mxCell>
        <mxCell id="43nEJZOgeesaap-Se7oP-7" value="25" style="ellipse;whiteSpace=wrap;html=1;aspect=fixed;" vertex="1" parent="1">
          <mxGeometry x="420" y="100" width="40" height="40" as="geometry" />
        </mxCell>
        <mxCell id="43nEJZOgeesaap-Se7oP-8" value="22" style="ellipse;whiteSpace=wrap;html=1;aspect=fixed;" vertex="1" parent="1">
          <mxGeometry x="390" y="160" width="40" height="40" as="geometry" />
        </mxCell>
        <mxCell id="43nEJZOgeesaap-Se7oP-9" value="27" style="ellipse;whiteSpace=wrap;html=1;aspect=fixed;" vertex="1" parent="1">
          <mxGeometry x="450" y="160" width="40" height="40" as="geometry" />
        </mxCell>
        <mxCell id="43nEJZOgeesaap-Se7oP-15" style="rounded=0;orthogonalLoop=1;jettySize=auto;html=1;" edge="1" parent="1" source="43nEJZOgeesaap-Se7oP-2" target="43nEJZOgeesaap-Se7oP-4">
          <mxGeometry relative="1" as="geometry">
            <mxPoint x="295" y="53" as="sourcePoint" />
            <mxPoint x="265" y="77" as="targetPoint" />
          </mxGeometry>
        </mxCell>
        <mxCell id="43nEJZOgeesaap-Se7oP-16" style="rounded=0;orthogonalLoop=1;jettySize=auto;html=1;" edge="1" parent="1" source="43nEJZOgeesaap-Se7oP-5" target="43nEJZOgeesaap-Se7oP-6">
          <mxGeometry relative="1" as="geometry">
            <mxPoint x="305" y="63" as="sourcePoint" />
            <mxPoint x="275" y="87" as="targetPoint" />
          </mxGeometry>
        </mxCell>
        <mxCell id="43nEJZOgeesaap-Se7oP-17" style="rounded=0;orthogonalLoop=1;jettySize=auto;html=1;" edge="1" parent="1" source="43nEJZOgeesaap-Se7oP-5" target="43nEJZOgeesaap-Se7oP-7">
          <mxGeometry relative="1" as="geometry">
            <mxPoint x="315" y="73" as="sourcePoint" />
            <mxPoint x="285" y="97" as="targetPoint" />
          </mxGeometry>
        </mxCell>
        <mxCell id="43nEJZOgeesaap-Se7oP-19" style="rounded=0;orthogonalLoop=1;jettySize=auto;html=1;" edge="1" parent="1" source="43nEJZOgeesaap-Se7oP-7" target="43nEJZOgeesaap-Se7oP-8">
          <mxGeometry relative="1" as="geometry">
            <mxPoint x="335" y="93" as="sourcePoint" />
            <mxPoint x="305" y="117" as="targetPoint" />
          </mxGeometry>
        </mxCell>
        <mxCell id="43nEJZOgeesaap-Se7oP-20" style="rounded=0;orthogonalLoop=1;jettySize=auto;html=1;" edge="1" parent="1" source="43nEJZOgeesaap-Se7oP-7" target="43nEJZOgeesaap-Se7oP-9">
          <mxGeometry relative="1" as="geometry">
            <mxPoint x="345" y="103" as="sourcePoint" />
            <mxPoint x="315" y="127" as="targetPoint" />
          </mxGeometry>
        </mxCell>
        <mxCell id="43nEJZOgeesaap-Se7oP-49" value="4" style="text;strokeColor=none;align=center;fillColor=none;html=1;verticalAlign=middle;whiteSpace=wrap;rounded=0;fontColor=#97D077;" vertex="1" parent="1">
          <mxGeometry x="325" y="10" width="40" height="20" as="geometry" />
        </mxCell>
        <mxCell id="43nEJZOgeesaap-Se7oP-51" value="3" style="text;strokeColor=none;align=center;fillColor=none;html=1;verticalAlign=middle;whiteSpace=wrap;rounded=0;fontColor=#97D077;" vertex="1" parent="1">
          <mxGeometry x="400" y="50" width="40" height="20" as="geometry" />
        </mxCell>
        <mxCell id="43nEJZOgeesaap-Se7oP-52" value="2" style="text;strokeColor=none;align=center;fillColor=none;html=1;verticalAlign=middle;whiteSpace=wrap;rounded=0;fontColor=#97D077;" vertex="1" parent="1">
          <mxGeometry x="310" y="80" width="40" height="20" as="geometry" />
        </mxCell>
        <mxCell id="43nEJZOgeesaap-Se7oP-53" value="2" style="text;strokeColor=none;align=center;fillColor=none;html=1;verticalAlign=middle;whiteSpace=wrap;rounded=0;fontColor=#97D077;" vertex="1" parent="1">
          <mxGeometry x="250" y="60" width="40" height="20" as="geometry" />
        </mxCell>
        <mxCell id="43nEJZOgeesaap-Se7oP-56" value="1" style="text;strokeColor=none;align=center;fillColor=none;html=1;verticalAlign=middle;whiteSpace=wrap;rounded=0;fontColor=#97D077;" vertex="1" parent="1">
          <mxGeometry x="210" y="110" width="40" height="20" as="geometry" />
        </mxCell>
        <mxCell id="43nEJZOgeesaap-Se7oP-61" value="11" style="ellipse;whiteSpace=wrap;html=1;aspect=fixed;" vertex="1" parent="1">
          <mxGeometry x="280" y="160" width="40" height="40" as="geometry" />
        </mxCell>
        <mxCell id="43nEJZOgeesaap-Se7oP-62" value="15" style="ellipse;whiteSpace=wrap;html=1;aspect=fixed;" vertex="1" parent="1">
          <mxGeometry x="340" y="160" width="40" height="40" as="geometry" />
        </mxCell>
        <mxCell id="43nEJZOgeesaap-Se7oP-63" style="rounded=0;orthogonalLoop=1;jettySize=auto;html=1;" edge="1" parent="1" target="43nEJZOgeesaap-Se7oP-61" source="43nEJZOgeesaap-Se7oP-6">
          <mxGeometry relative="1" as="geometry">
            <mxPoint x="308" y="156" as="sourcePoint" />
            <mxPoint x="195" y="137" as="targetPoint" />
          </mxGeometry>
        </mxCell>
        <mxCell id="43nEJZOgeesaap-Se7oP-64" style="rounded=0;orthogonalLoop=1;jettySize=auto;html=1;" edge="1" parent="1" target="43nEJZOgeesaap-Se7oP-62" source="43nEJZOgeesaap-Se7oP-6">
          <mxGeometry relative="1" as="geometry">
            <mxPoint x="332" y="156" as="sourcePoint" />
            <mxPoint x="205" y="147" as="targetPoint" />
          </mxGeometry>
        </mxCell>
        <mxCell id="43nEJZOgeesaap-Se7oP-65" value="2" style="text;strokeColor=none;align=center;fillColor=none;html=1;verticalAlign=middle;whiteSpace=wrap;rounded=0;fontColor=#97D077;" vertex="1" parent="1">
          <mxGeometry x="450" y="100" width="40" height="20" as="geometry" />
        </mxCell>
        <mxCell id="43nEJZOgeesaap-Se7oP-66" value="1" style="text;strokeColor=none;align=center;fillColor=none;html=1;verticalAlign=middle;whiteSpace=wrap;rounded=0;fontColor=#97D077;" vertex="1" parent="1">
          <mxGeometry x="250" y="160" width="40" height="20" as="geometry" />
        </mxCell>
        <mxCell id="43nEJZOgeesaap-Se7oP-67" value="1" style="text;strokeColor=none;align=center;fillColor=none;html=1;verticalAlign=middle;whiteSpace=wrap;rounded=0;fontColor=#97D077;" vertex="1" parent="1">
          <mxGeometry x="350" y="140" width="40" height="20" as="geometry" />
        </mxCell>
        <mxCell id="43nEJZOgeesaap-Se7oP-68" value="1" style="text;strokeColor=none;align=center;fillColor=none;html=1;verticalAlign=middle;whiteSpace=wrap;rounded=0;fontColor=#97D077;" vertex="1" parent="1">
          <mxGeometry x="470" y="140" width="40" height="20" as="geometry" />
        </mxCell>
        <mxCell id="43nEJZOgeesaap-Se7oP-69" value="1" style="text;strokeColor=none;align=center;fillColor=none;html=1;verticalAlign=middle;whiteSpace=wrap;rounded=0;fontColor=#97D077;" vertex="1" parent="1">
          <mxGeometry x="380" y="140" width="40" height="20" as="geometry" />
        </mxCell>
      </root>
    </mxGraphModel>
  </diagram>
</mxfile>
